<svg width="268" height="175" viewBox="0 0 268 175" fill="none" xmlns="http://www.w3.org/2000/svg">
<path d="M95.3689 162.973H98.4376C98.4376 166.764 98.4376 170.578 98.4376 174.369H95.4619L95.2759 172.933C94.532 174.134 92.9046 174.604 91.812 174.628C88.441 174.652 86 172.438 86 168.671C86 164.88 88.5805 162.667 91.9049 162.714C93.3231 162.714 94.6482 163.279 95.2294 164.292L95.3689 162.973ZM89.3012 168.671C89.3012 170.555 90.6263 171.661 92.2769 171.661C94.1135 171.661 95.2526 170.202 95.2526 168.765C95.2526 167.117 94.2297 165.634 92.2769 165.634C90.6263 165.657 89.3012 166.788 89.3012 168.671Z" fill="#3A3852"/>
<path d="M112.363 158.241V174.369H109.411L109.201 172.909C108.155 174.275 106.877 174.581 105.459 174.581C102.157 174.581 99.9023 172.226 99.9023 168.671C99.9023 164.975 102.204 162.738 105.505 162.738C106.83 162.738 108.086 163.162 109.039 164.362V158.241H112.363ZM103.227 168.671C103.227 170.319 104.226 171.591 105.993 171.591C107.481 171.591 109.015 170.837 109.015 168.671C109.015 166.764 107.481 165.752 105.993 165.752C104.296 165.752 103.227 166.976 103.227 168.671Z" fill="#3A3852"/>
<path d="M124.359 172.862C123.011 174.204 121.383 174.604 119.965 174.604C116.687 174.604 113.804 172.791 113.804 168.671C113.804 164.833 116.664 162.691 119.942 162.691C121.593 162.691 122.894 163.067 124.034 164.268L122.22 166.364C121.546 165.822 120.779 165.704 120.105 165.704C118.454 165.704 117.129 166.787 117.129 168.671C117.129 170.484 118.501 171.544 120.035 171.544C120.756 171.544 121.778 171.237 122.313 170.696L124.359 172.862Z" fill="#3A3852"/>
<path d="M127.73 169.754C127.893 170.861 128.939 171.755 130.775 171.755C131.659 171.755 132.891 171.543 133.704 170.861L135.541 172.933C134.332 174.133 132.403 174.628 130.705 174.628C126.614 174.628 124.382 172.203 124.382 168.553C124.382 165.092 126.684 162.667 130.357 162.667C134.193 162.667 136.703 165.092 135.983 169.754H127.73ZM133.077 167.329C133.007 166.081 131.752 165.516 130.38 165.516C129.055 165.516 128.055 166.199 127.73 167.329H133.077Z" fill="#3A3852"/>
<path d="M145.631 174.369V168.341C145.631 166.599 144.887 165.681 143.306 165.681C141.771 165.657 140.749 166.999 140.749 168.483V174.369H137.517V162.973H140.493L140.609 164.433C141.609 163.114 142.887 162.691 144.259 162.691C146.793 162.691 148.955 163.891 148.955 168.318V174.369H145.631V174.369Z" fill="#3A3852"/>
<path d="M155.348 159.865V163.044H158.185V165.822H155.302V170.107C155.302 171.308 155.953 171.638 156.58 171.638C156.976 171.638 157.58 171.544 157.952 171.355L158.696 174.134C157.882 174.463 157.208 174.605 156.325 174.652C153.884 174.769 152.047 173.686 152.047 170.131V165.822H150.048V163.044H152.047V160.219L155.348 159.865Z" fill="#3A3852"/>
<path d="M162.439 169.754C162.602 170.861 163.648 171.755 165.484 171.755C166.368 171.755 167.6 171.543 168.414 170.861L170.25 172.933C169.041 174.133 167.112 174.628 165.415 174.628C161.323 174.628 159.091 172.203 159.091 168.553C159.091 165.092 161.393 162.667 165.066 162.667C168.902 162.667 171.413 165.092 170.692 169.754H162.439ZM167.763 167.329C167.693 166.081 166.438 165.516 165.066 165.516C163.741 165.516 162.741 166.199 162.416 167.329H167.763Z" fill="#3A3852"/>
<path d="M175.272 162.997L175.527 164.245C176.271 163.185 177.294 162.714 178.526 162.714C179.596 162.714 180.479 163.044 181.293 163.75L179.921 166.387C179.363 165.987 178.805 165.799 178.131 165.799C176.713 165.799 175.504 166.717 175.504 168.436V174.369H172.226V162.997H175.272Z" fill="#3A3852"/>
<path d="M144.831 18.4406C143.458 8.028 134.629 0 123.994 0C112.418 0 103 9.53822 103 21.2623C103 32.0325 110.927 40.9349 121.208 42.3259C122.581 52.6987 131.411 60.7664 142.006 60.7664C153.582 60.7664 163 51.2282 163 39.5041C163 28.7339 155.073 19.8316 144.831 18.4406ZM108.965 21.2623C108.965 12.8766 115.714 6.04087 123.994 6.04087C131.254 6.04087 137.336 11.2869 138.71 18.2419H121.012V36.1658C114.145 34.7748 108.965 28.6147 108.965 21.2623ZM139.024 24.2827V36.4837H126.976V24.2827H139.024ZM142.006 54.7256C134.746 54.7256 128.664 49.4795 127.29 42.5246H144.988V24.6007C151.855 25.9917 157.035 32.1518 157.035 39.5041C157.035 47.8898 150.286 54.7256 142.006 54.7256Z" fill="url(#paint0_linear)"/>
<path d="M98.8221 149.576V146.132C99.3681 146.832 100.11 147.168 100.908 147.168C102.644 147.168 103.904 145.866 103.904 143.612C103.904 141.358 102.644 140.07 100.908 140.07C100.082 140.07 99.3401 140.434 98.8221 141.092V140.238H97.0441V149.576H98.8221ZM102.056 143.612C102.056 144.788 101.37 145.586 100.348 145.586C99.7741 145.586 99.1161 145.236 98.8221 144.816V142.422C99.1161 141.988 99.7741 141.652 100.348 141.652C101.37 141.652 102.056 142.45 102.056 143.612ZM108.37 147.168C110.61 147.168 111.954 145.544 111.954 143.612C111.954 141.694 110.61 140.07 108.37 140.07C106.144 140.07 104.8 141.694 104.8 143.612C104.8 145.544 106.144 147.168 108.37 147.168ZM108.37 145.586C107.264 145.586 106.648 144.676 106.648 143.612C106.648 142.562 107.264 141.652 108.37 141.652C109.476 141.652 110.106 142.562 110.106 143.612C110.106 144.676 109.476 145.586 108.37 145.586ZM119.209 147H121.099L123.157 140.238H121.309L120.049 144.788L118.565 140.238H116.983L115.499 144.788L114.239 140.238H112.391L114.449 147H116.353L117.781 142.394L119.209 147ZM123.598 143.612C123.598 145.782 125.152 147.168 127.21 147.168C128.26 147.168 129.31 146.86 129.996 146.23L129.212 145.082C128.778 145.502 128.036 145.754 127.406 145.754C126.258 145.754 125.572 145.04 125.46 144.186H130.486V143.794C130.486 141.582 129.114 140.07 127.098 140.07C125.04 140.07 123.598 141.652 123.598 143.612ZM127.098 141.484C128.274 141.484 128.722 142.338 128.764 142.982H125.432C125.516 142.31 125.992 141.484 127.098 141.484ZM131.771 147H133.549V142.534C133.843 142.1 134.627 141.778 135.215 141.778C135.411 141.778 135.579 141.792 135.705 141.82V140.084C134.865 140.084 134.025 140.56 133.549 141.162V140.238H131.771V147ZM136.382 143.612C136.382 145.782 137.936 147.168 139.994 147.168C141.044 147.168 142.094 146.86 142.78 146.23L141.996 145.082C141.562 145.502 140.82 145.754 140.19 145.754C139.042 145.754 138.356 145.04 138.244 144.186H143.27V143.794C143.27 141.582 141.898 140.07 139.882 140.07C137.824 140.07 136.382 141.652 136.382 143.612ZM139.882 141.484C141.058 141.484 141.506 142.338 141.548 142.982H138.216C138.3 142.31 138.776 141.484 139.882 141.484ZM149.202 147H150.994V137.662H149.202V141.106C148.67 140.42 147.914 140.07 147.116 140.07C145.394 140.07 144.12 141.414 144.12 143.626C144.12 145.88 145.408 147.168 147.116 147.168C147.928 147.168 148.67 146.804 149.202 146.146V147ZM149.202 144.816C148.894 145.264 148.264 145.586 147.662 145.586C146.654 145.586 145.954 144.788 145.954 143.626C145.954 142.45 146.654 141.652 147.662 141.652C148.264 141.652 148.894 141.974 149.202 142.422V144.816ZM156.339 147H158.117V146.146C158.649 146.804 159.391 147.168 160.203 147.168C161.911 147.168 163.199 145.88 163.199 143.626C163.199 141.414 161.925 140.07 160.203 140.07C159.405 140.07 158.649 140.42 158.117 141.106V137.662H156.339V147ZM158.117 144.83V142.436C158.411 141.988 159.069 141.652 159.643 141.652C160.679 141.652 161.365 142.45 161.365 143.626C161.365 144.802 160.679 145.586 159.643 145.586C159.069 145.586 158.411 145.264 158.117 144.83ZM164.57 148.05L164.304 149.646C164.528 149.702 164.976 149.744 165.186 149.744C166.348 149.716 167.244 149.38 167.748 148.106L170.926 140.238H169.008L167.244 144.942L165.48 140.238H163.576L166.32 147.098L166.068 147.672C165.9 148.036 165.592 148.162 165.13 148.162C164.962 148.162 164.724 148.12 164.57 148.05Z" fill="#7F98A5"/>
<path d="M17.117 97.36C22.487 97.36 25.457 94.69 25.457 90.67C25.457 83.23 14.147 85.09 14.147 82.63C14.147 81.76 14.807 81.25 16.307 81.25C18.287 81.25 20.477 81.94 22.157 83.35L24.977 79.48C22.847 77.65 20.057 76.69 16.847 76.69C11.717 76.69 8.89695 79.69 8.89695 83.05C8.89695 90.76 20.207 88.57 20.207 91.21C20.207 92.2 19.127 92.8 17.387 92.8C14.627 92.8 12.407 91.6 10.967 90.16L8.23695 94.18C10.247 96.07 13.067 97.36 17.117 97.36ZM50.6103 97V86.5C50.6103 83.53 48.9303 82.15 46.2603 82.15C43.9803 82.15 42.0903 83.47 41.2503 84.73C40.6503 83.02 39.2403 82.15 37.1403 82.15C34.8603 82.15 33.0003 83.44 32.3703 84.28V82.51H27.7503V97H32.3703V87.64C32.8503 87.04 33.7203 86.23 34.9803 86.23C36.3603 86.23 36.8703 87.07 36.8703 88.18V97H41.4903V87.64C41.9403 87.04 42.8403 86.23 44.1003 86.23C45.4803 86.23 46.0203 87.07 46.0203 88.18V97H50.6103ZM67.1703 97V87.94C67.1703 83.44 63.9003 82.15 60.4203 82.15C58.2003 82.15 55.7103 82.81 53.8503 84.4L55.5603 87.61C56.7303 86.62 58.1703 86.05 59.6103 86.05C61.4703 86.05 62.5503 86.92 62.5503 88.18V89.62C61.6803 88.54 59.9703 87.91 58.0503 87.91C55.8303 87.91 53.0703 89.08 53.0703 92.59C53.0703 95.83 55.8303 97.36 58.0503 97.36C59.9103 97.36 61.6503 96.64 62.5503 95.56V97H67.1703ZM59.9703 94.33C58.7703 94.33 57.6603 93.79 57.6603 92.65C57.6603 91.51 58.7703 90.97 59.9703 90.97C60.9903 90.97 62.0703 91.3 62.5503 91.99V93.28C62.0703 93.97 60.9903 94.33 59.9703 94.33ZM75.1438 97V87.76C75.7438 86.95 77.3338 86.44 78.5338 86.44C79.0138 86.44 79.4038 86.47 79.6738 86.56V82.12C77.9638 82.12 76.1038 83.11 75.1438 84.28V82.51H70.5238V97H75.1438ZM87.2638 97.36C88.9738 97.36 90.1138 96.94 90.6838 96.4L89.7838 92.92C89.6338 93.1 89.1238 93.28 88.6138 93.28C87.8338 93.28 87.3538 92.65 87.3538 91.81V86.5H90.2938V82.51H87.3538V78.55H82.7338V82.51H80.3338V86.5H82.7338V93.1C82.7338 95.89 84.3238 97.36 87.2638 97.36ZM176.102 97L172.022 89.65C173.912 88.99 176.012 87.13 176.012 83.65C176.012 79.93 173.492 76.99 169.052 76.99H159.032V97H164.192V90.28H166.832L170.192 97H176.102ZM168.272 85.78H164.192V81.49H168.272C169.652 81.49 170.762 82.24 170.762 83.62C170.762 85.03 169.652 85.78 168.272 85.78ZM184.768 97.36C189.748 97.36 192.688 93.82 192.688 89.74C192.688 85.66 189.748 82.15 184.768 82.15C179.848 82.15 176.908 85.66 176.908 89.74C176.908 93.82 179.848 97.36 184.768 97.36ZM184.768 93.28C182.788 93.28 181.648 91.69 181.648 89.74C181.648 87.82 182.788 86.23 184.768 86.23C186.808 86.23 187.948 87.82 187.948 89.74C187.948 91.69 186.808 93.28 184.768 93.28ZM200.613 97.36C202.323 97.36 203.463 96.94 204.033 96.4L203.133 92.92C202.983 93.1 202.473 93.28 201.963 93.28C201.183 93.28 200.703 92.65 200.703 91.81V86.5H203.643V82.51H200.703V78.55H196.083V82.51H193.683V86.5H196.083V93.1C196.083 95.89 197.673 97.36 200.613 97.36ZM219.104 97V87.94C219.104 83.44 215.834 82.15 212.354 82.15C210.134 82.15 207.644 82.81 205.784 84.4L207.494 87.61C208.664 86.62 210.104 86.05 211.544 86.05C213.404 86.05 214.484 86.92 214.484 88.18V89.62C213.614 88.54 211.904 87.91 209.984 87.91C207.764 87.91 205.004 89.08 205.004 92.59C205.004 95.83 207.764 97.36 209.984 97.36C211.844 97.36 213.584 96.64 214.484 95.56V97H219.104ZM211.904 94.33C210.704 94.33 209.594 93.79 209.594 92.65C209.594 91.51 210.704 90.97 211.904 90.97C212.924 90.97 214.004 91.3 214.484 91.99V93.28C214.004 93.97 212.924 94.33 211.904 94.33ZM227.947 97.36C229.657 97.36 230.797 96.94 231.367 96.4L230.467 92.92C230.317 93.1 229.807 93.28 229.297 93.28C228.517 93.28 228.037 92.65 228.037 91.81V86.5H230.977V82.51H228.037V78.55H223.417V82.51H221.017V86.5H223.417V93.1C223.417 95.89 225.007 97.36 227.947 97.36ZM240.198 97.36C245.178 97.36 248.118 93.82 248.118 89.74C248.118 85.66 245.178 82.15 240.198 82.15C235.278 82.15 232.338 85.66 232.338 89.74C232.338 93.82 235.278 97.36 240.198 97.36ZM240.198 93.28C238.218 93.28 237.078 91.69 237.078 89.74C237.078 87.82 238.218 86.23 240.198 86.23C242.238 86.23 243.378 87.82 243.378 89.74C243.378 91.69 242.238 93.28 240.198 93.28ZM255.173 97V87.76C255.773 86.95 257.363 86.44 258.563 86.44C259.043 86.44 259.433 86.47 259.703 86.56V82.12C257.993 82.12 256.133 83.11 255.173 84.28V82.51H250.553V97H255.173Z" fill="#3A3852"/>
<path d="M97.8643 97V89.11H107.164V84.61H97.8643V81.49H107.374V76.99H92.7043V97H97.8643ZM114.665 97V76.99H110.045V97H114.665ZM124.944 97.36C129.924 97.36 132.864 93.82 132.864 89.74C132.864 85.66 129.924 82.15 124.944 82.15C120.024 82.15 117.084 85.66 117.084 89.74C117.084 93.82 120.024 97.36 124.944 97.36ZM124.944 93.28C122.964 93.28 121.824 91.69 121.824 89.74C121.824 87.82 122.964 86.23 124.944 86.23C126.984 86.23 128.124 87.82 128.124 89.74C128.124 91.69 126.984 93.28 124.944 93.28ZM153.119 97L157.409 82.51H152.639L150.329 91.39L147.479 82.51H143.369L140.519 91.39L138.179 82.51H133.439L137.729 97H142.709L145.409 88.03L148.139 97H153.119Z" fill="#36B8E1"/>
<defs>
<linearGradient id="paint0_linear" x1="117.84" y1="4.24236" x2="149.604" y2="57.6287" gradientUnits="userSpaceOnUse">
<stop stop-color="#67E6F5"/>
<stop offset="0.1483" stop-color="#5CD9EF"/>
<stop offset="1" stop-color="#2294D0"/>
</linearGradient>
</defs>
</svg>
