<svg xmlns="http://www.w3.org/2000/svg" xmlns:xlink="http://www.w3.org/1999/xlink" viewBox="0 0 583.39 152.94"><defs><style>.a{fill:url(#a);}.b{fill:#3a3852;}</style><linearGradient id="a" x1="141.51" y1="239.2" x2="220.94" y2="374.42" gradientUnits="userSpaceOnUse"><stop offset="0" stop-color="#67e6f5"/><stop offset="0.15" stop-color="#5cd9ef"/><stop offset="1" stop-color="#2294d0"/></linearGradient></defs><title>Adcenter_rgb_official</title><path class="a" d="M210.25,274.91a53.52,53.52,0,1,0-60.18,60.18,53.52,53.52,0,1,0,60.18-60.18Zm-91.32,7.14a38.28,38.28,0,0,1,75.8-7.62H149.59v45.14A38.34,38.34,0,0,1,118.93,282.05Zm76.56,7.62v30.66H164.83V289.67Zm7.62,76.56a38.35,38.35,0,0,1-37.52-30.66h45.14V290.43a38.28,38.28,0,0,1-7.62,75.8Z" transform="translate(-103.69 -228.53)"/><path class="b" d="M317.53,283.63h13.24v48.42H318l-.79-6.08c-3.23,5.1-10.2,7.06-14.91,7.16-14.51.09-25-9.32-25-25.29s11.09-25.48,25.41-25.29c6.08,0,11.77,2.36,14.32,6.67Zm-26.09,24.21c0,8,5.69,12.74,12.75,12.74A12.45,12.45,0,0,0,317,308.33c0-7-4.42-13.33-12.85-13.33C297.13,295,291.44,299.8,291.44,307.84Z" transform="translate(-103.69 -228.53)"/><path class="b" d="M390.59,263.54v68.51H377.94l-.88-6.18c-4.51,5.79-10,7.06-16.09,7.06-14.22,0-23.93-10-23.93-25.09,0-15.68,9.91-25.19,24.13-25.19,5.69,0,11.08,1.77,15.2,6.86v-26Zm-39.33,44.3c0,7,4.32,12.45,11.87,12.45,6.38,0,13.05-3.24,13.05-12.45,0-8.13-6.57-12.45-13.05-12.45C355.87,295.39,351.26,300.59,351.26,307.84Z" transform="translate(-103.69 -228.53)"/><path class="b" d="M442.18,325.68a26.32,26.32,0,0,1-18.93,7.45c-14.12,0-26.48-7.75-26.48-25.19,0-16.27,12.26-25.39,26.39-25.39,7.06,0,12.65,1.57,17.55,6.67l-7.84,8.92a14.5,14.5,0,0,0-9.13-2.85c-7.06,0-12.75,4.61-12.75,12.65,0,7.74,5.89,12.15,12.46,12.15,3.14,0,7.45-1.27,9.81-3.63Z" transform="translate(-103.69 -228.53)"/><path class="b" d="M456.7,312.45c.68,4.7,5.2,8.52,13.14,8.52,3.83,0,9.12-.88,12.56-3.82l7.94,8.82c-5.2,5.1-13.54,7.16-20.79,7.16-17.56,0-27.17-10.3-27.17-25.78,0-14.7,9.9-25,25.69-25,16.48,0,27.27,10.29,24.23,30.09Zm22.95-10.29c-.3-5.3-5.69-7.75-11.58-7.75-5.68,0-10,2.94-11.37,7.75Z" transform="translate(-103.69 -228.53)"/><path class="b" d="M533.69,332.05V306.47c0-7.45-3.24-11.27-10-11.27-6.58-.1-11,5.58-11,11.86v25H498.77V283.63h12.75l.49,6.18c4.32-5.59,9.81-7.45,15.7-7.35,10.88,0,20.2,5.09,20.2,23.91v25.68Z" transform="translate(-103.69 -228.53)"/><path class="b" d="M575.47,270.4v13.53h12.26v11.76H575.37v18.23c0,5.09,2.85,6.46,5.49,6.46a15.47,15.47,0,0,0,5.89-1.17L590,331a30.25,30.25,0,0,1-10.2,2.16c-10.49.49-18.44-4.12-18.44-19.21V295.69h-8.63V283.93h8.63V272Z" transform="translate(-103.69 -228.53)"/><path class="b" d="M606,312.45c.69,4.7,5.2,8.52,13.14,8.52,3.83,0,9.12-.88,12.56-3.82l7.94,8.82c-5.2,5.1-13.53,7.16-20.79,7.16-17.56,0-27.17-10.3-27.17-25.78,0-14.7,9.91-25,25.7-25,16.48,0,27.26,10.29,24.22,30.09Zm22.95-10.29c-.29-5.3-5.69-7.75-11.57-7.75-5.69,0-10,2.94-11.38,7.75Z" transform="translate(-103.69 -228.53)"/><path class="b" d="M661.19,283.73l1.08,5.29a14.89,14.89,0,0,1,12.94-6.47A17,17,0,0,1,687.08,287l-5.88,11.18a12.79,12.79,0,0,0-7.75-2.45c-6.08,0-11.28,3.92-11.28,11.17v25.19H648V283.73Z" transform="translate(-103.69 -228.53)"/></svg>