<svg width="183" height="32" viewBox="0 0 183 32" fill="none" xmlns="http://www.w3.org/2000/svg">
<path d="M45.1624 21.192C48.0264 21.192 49.6104 19.768 49.6104 17.624C49.6104 13.656 43.5784 14.648 43.5784 13.336C43.5784 12.872 43.9304 12.6 44.7304 12.6C45.7864 12.6 46.9544 12.968 47.8504 13.72L49.3544 11.656C48.2184 10.68 46.7304 10.168 45.0184 10.168C42.2824 10.168 40.7784 11.768 40.7784 13.56C40.7784 17.672 46.8104 16.504 46.8104 17.912C46.8104 18.44 46.2344 18.76 45.3064 18.76C43.8344 18.76 42.6504 18.12 41.8824 17.352L40.4264 19.496C41.4984 20.504 43.0024 21.192 45.1624 21.192ZM63.0255 21V15.4C63.0255 13.816 62.1295 13.08 60.7055 13.08C59.4895 13.08 58.4815 13.784 58.0335 14.456C57.7135 13.544 56.9615 13.08 55.8415 13.08C54.6255 13.08 53.6335 13.768 53.2975 14.216V13.272H50.8335V21H53.2975V16.008C53.5535 15.688 54.0175 15.256 54.6895 15.256C55.4255 15.256 55.6975 15.704 55.6975 16.296V21H58.1615V16.008C58.4015 15.688 58.8815 15.256 59.5535 15.256C60.2895 15.256 60.5775 15.704 60.5775 16.296V21H63.0255ZM71.8575 21V16.168C71.8575 13.768 70.1135 13.08 68.2575 13.08C67.0735 13.08 65.7455 13.432 64.7535 14.28L65.6655 15.992C66.2895 15.464 67.0575 15.16 67.8255 15.16C68.8175 15.16 69.3935 15.624 69.3935 16.296V17.064C68.9295 16.488 68.0175 16.152 66.9935 16.152C65.8095 16.152 64.3375 16.776 64.3375 18.648C64.3375 20.376 65.8095 21.192 66.9935 21.192C67.9855 21.192 68.9135 20.808 69.3935 20.232V21H71.8575ZM68.0175 19.576C67.3775 19.576 66.7855 19.288 66.7855 18.68C66.7855 18.072 67.3775 17.784 68.0175 17.784C68.5615 17.784 69.1375 17.96 69.3935 18.328V19.016C69.1375 19.384 68.5615 19.576 68.0175 19.576ZM76.11 21V16.072C76.43 15.64 77.278 15.368 77.918 15.368C78.174 15.368 78.382 15.384 78.526 15.432V13.064C77.614 13.064 76.622 13.592 76.11 14.216V13.272H73.646V21H76.11ZM82.574 21.192C83.486 21.192 84.094 20.968 84.398 20.68L83.918 18.824C83.838 18.92 83.566 19.016 83.294 19.016C82.878 19.016 82.622 18.68 82.622 18.232V15.4H84.19V13.272H82.622V11.16H80.158V13.272H78.878V15.4H80.158V18.92C80.158 20.408 81.006 21.192 82.574 21.192ZM129.955 21L127.779 17.08C128.787 16.728 129.907 15.736 129.907 13.88C129.907 11.896 128.563 10.328 126.195 10.328H120.851V21H123.603V17.416H125.011L126.803 21H129.955ZM125.779 15.016H123.603V12.728H125.779C126.515 12.728 127.107 13.128 127.107 13.864C127.107 14.616 126.515 15.016 125.779 15.016ZM134.576 21.192C137.232 21.192 138.8 19.304 138.8 17.128C138.8 14.952 137.232 13.08 134.576 13.08C131.952 13.08 130.384 14.952 130.384 17.128C130.384 19.304 131.952 21.192 134.576 21.192ZM134.576 19.016C133.52 19.016 132.912 18.168 132.912 17.128C132.912 16.104 133.52 15.256 134.576 15.256C135.664 15.256 136.272 16.104 136.272 17.128C136.272 18.168 135.664 19.016 134.576 19.016ZM143.027 21.192C143.939 21.192 144.547 20.968 144.851 20.68L144.371 18.824C144.291 18.92 144.019 19.016 143.747 19.016C143.331 19.016 143.075 18.68 143.075 18.232V15.4H144.643V13.272H143.075V11.16H140.611V13.272H139.331V15.4H140.611V18.92C140.611 20.408 141.459 21.192 143.027 21.192ZM152.889 21V16.168C152.889 13.768 151.145 13.08 149.289 13.08C148.105 13.08 146.777 13.432 145.785 14.28L146.697 15.992C147.321 15.464 148.089 15.16 148.857 15.16C149.849 15.16 150.425 15.624 150.425 16.296V17.064C149.961 16.488 149.049 16.152 148.025 16.152C146.841 16.152 145.369 16.776 145.369 18.648C145.369 20.376 146.841 21.192 148.025 21.192C149.017 21.192 149.945 20.808 150.425 20.232V21H152.889ZM149.049 19.576C148.409 19.576 147.817 19.288 147.817 18.68C147.817 18.072 148.409 17.784 149.049 17.784C149.593 17.784 150.169 17.96 150.425 18.328V19.016C150.169 19.384 149.593 19.576 149.049 19.576ZM157.605 21.192C158.517 21.192 159.125 20.968 159.429 20.68L158.949 18.824C158.869 18.92 158.597 19.016 158.325 19.016C157.909 19.016 157.653 18.68 157.653 18.232V15.4H159.221V13.272H157.653V11.16H155.189V13.272H153.909V15.4H155.189V18.92C155.189 20.408 156.037 21.192 157.605 21.192ZM164.139 21.192C166.795 21.192 168.363 19.304 168.363 17.128C168.363 14.952 166.795 13.08 164.139 13.08C161.515 13.08 159.947 14.952 159.947 17.128C159.947 19.304 161.515 21.192 164.139 21.192ZM164.139 19.016C163.083 19.016 162.475 18.168 162.475 17.128C162.475 16.104 163.083 15.256 164.139 15.256C165.227 15.256 165.835 16.104 165.835 17.128C165.835 18.168 165.227 19.016 164.139 19.016ZM172.126 21V16.072C172.446 15.64 173.294 15.368 173.934 15.368C174.19 15.368 174.398 15.384 174.542 15.432V13.064C173.63 13.064 172.638 13.592 172.126 14.216V13.272H169.662V21H172.126Z" fill="white"/>
<path d="M88.2276 21V16.792H93.1876V14.392H88.2276V12.728H93.2996V10.328H85.4756V21H88.2276ZM97.1881 21V10.328H94.7241V21H97.1881ZM102.67 21.192C105.326 21.192 106.894 19.304 106.894 17.128C106.894 14.952 105.326 13.08 102.67 13.08C100.046 13.08 98.4781 14.952 98.4781 17.128C98.4781 19.304 100.046 21.192 102.67 21.192ZM102.67 19.016C101.614 19.016 101.006 18.168 101.006 17.128C101.006 16.104 101.614 15.256 102.67 15.256C103.758 15.256 104.366 16.104 104.366 17.128C104.366 18.168 103.758 19.016 102.67 19.016ZM117.697 21L119.985 13.272H117.441L116.209 18.008L114.689 13.272H112.497L110.977 18.008L109.729 13.272H107.201L109.489 21H112.145L113.585 16.216L115.041 21H117.697Z" fill="#67E6F5"/>
<circle cx="16" cy="16" r="16" fill="url(#paint0_linear)"/>
<path d="M19.5494 12.4624C19.1373 9.37803 16.4886 7 13.2982 7C9.82538 7 7 9.82538 7 13.2982C7 16.4886 9.37803 19.1256 12.4624 19.5376C12.8744 22.6102 15.5232 25 18.7018 25C22.1746 25 25 22.1746 25 18.7018C25 15.5114 22.622 12.8744 19.5494 12.4624ZM8.7894 13.2982C8.7894 10.8143 10.8143 8.7894 13.2982 8.7894C15.4761 8.7894 17.3009 10.3434 17.7129 12.4035H12.4035V17.7129C10.3434 17.3009 8.7894 15.4761 8.7894 13.2982ZM17.8071 14.1929V17.8071H14.1929V14.1929H17.8071ZM18.7018 23.2106C16.5239 23.2106 14.6992 21.6566 14.2871 19.5965H19.5965V14.2871C21.6566 14.6992 23.2106 16.5239 23.2106 18.7018C23.2106 21.1857 21.1857 23.2106 18.7018 23.2106Z" fill="white"/>
<defs>
<linearGradient id="paint0_linear" x1="-1.93113e-07" y1="6.09524" x2="33.898" y2="29.2175" gradientUnits="userSpaceOnUse">
<stop stop-color="#67E6F5"/>
<stop offset="1" stop-color="#2294D0"/>
</linearGradient>
</defs>
</svg>
