<svg width="168" height="55" viewBox="0 0 168 55" fill="none" xmlns="http://www.w3.org/2000/svg">
<path d="M93.6323 24.6C93.6323 19.128 89.9363 15.792 84.5603 15.792C79.1843 15.792 75.4883 19.128 75.4883 24.6C75.4883 30.072 79.1843 33.408 84.5603 33.408C89.9363 33.408 93.6323 30.072 93.6323 24.6ZM89.9603 24.6C89.9603 27.72 87.8243 30.024 84.5603 30.024C81.3683 30.024 79.1603 27.744 79.1603 24.6C79.1603 21.552 81.3683 19.152 84.5603 19.152C87.8243 19.152 89.9603 21.528 89.9603 24.6ZM103.065 30.144C101.481 30.144 99.873 29.088 99.873 27.096C99.873 24.84 101.505 24.048 103.065 24.048C104.913 24.048 105.969 25.392 105.969 27.096C105.969 28.872 104.841 30.144 103.065 30.144ZM99.825 38.232V31.584C100.833 32.832 102.297 33.264 103.545 33.264C107.025 33.264 109.449 30.936 109.449 27.096C109.449 23.4 107.073 20.952 103.593 20.952C102.105 20.952 100.761 21.264 99.657 22.68L99.441 21.168H96.345V38.232H99.825ZM113.351 18.288V21.216H111.239V24.096H113.351V28.56C113.351 32.256 115.295 33.384 117.863 33.264C118.799 33.216 119.495 33.072 120.359 32.736L119.567 29.856C119.183 30.048 118.535 30.144 118.127 30.144C117.479 30.144 116.783 29.808 116.783 28.56V24.096H119.807V21.216H116.807V17.904L113.351 18.288ZM126.113 21.12V33H122.657V21.12H126.113ZM122.417 18C122.417 20.592 126.353 20.592 126.353 18C126.353 15.408 122.417 15.408 122.417 18ZM129.484 27.48H138.484V24.48H129.484V27.48ZM155.076 33H159.132L151.596 16.2H147.516L139.98 33H144.012L145.236 30.12H153.852L155.076 33ZM152.436 26.808H146.652L149.556 19.992L152.436 26.808ZM165.129 33V16.2H161.409V33H165.129Z" fill="white"/>
<circle cx="27.1186" cy="27.1186" r="27.1186" fill="url(#paint0_linear)"/>
<path d="M33.1345 21.1227C32.4362 15.8949 27.9467 11.8644 22.5394 11.8644C16.6532 11.8644 11.8644 16.6532 11.8644 22.5394C11.8644 27.9467 15.8949 32.4162 21.1227 33.1146C21.821 38.3224 26.3105 42.3729 31.6979 42.3729C37.5841 42.3729 42.3729 37.5841 42.3729 31.6979C42.3729 26.2906 38.3423 21.821 33.1345 21.1227ZM14.8973 22.5394C14.8973 18.3292 18.3292 14.8973 22.5394 14.8973C26.2307 14.8973 29.3234 17.5311 30.0218 21.0229H21.0229V30.0218C17.5311 29.3234 14.8973 26.2307 14.8973 22.5394ZM30.1814 24.0558V30.1814H24.0558V24.0558H30.1814ZM31.6979 39.34C28.0065 39.34 24.9138 36.7061 24.2154 33.2143H33.2143V24.2154C36.7061 24.9138 39.34 28.0065 39.34 31.6979C39.34 35.908 35.908 39.34 31.6979 39.34Z" fill="white"/>
<defs>
<linearGradient id="paint0_linear" x1="-3.2731e-07" y1="10.3309" x2="57.4542" y2="49.5212" gradientUnits="userSpaceOnUse">
<stop stop-color="#67E6F5"/>
<stop offset="1" stop-color="#2294D0"/>
</linearGradient>
</defs>
</svg>
